# ProBuilder 6.0.6
# https://unity3d.com/unity/features/worldbuilding/probuilder
# 11/13/2025 1:18:46 PM

mtllib ./Plane.mtl
o Plane

g Plane
v 1.285278 0 -1.846344
v 1.2854 0 -1.612427
v 1.114746 0 -1.846375
v 1.114746 0 -1.626282
v 1.285278 0 0
v 1.114746 0 0
v 1.2854 0 1.626038
v 1.114746 0 1.626038
v 1.285278 0 1.846344
v 1.114746 0 1.846375
v 0 0 -1.846344
v 0 0 -1.626282
v 0 0 1.626038
v 0 0 1.846344
v -1.104492 0 -1.846375
v -1.104492 0 -1.626282
v -1.104492 0 1.626038
v -1.104492 0 1.846375
v -1.285278 0 -1.846344
v -1.2854 0 -1.626282
v -1.104492 0 0
v -1.285278 0 0
v -1.2854 0 1.626038
v -1.285278 0 1.846344

vt -1.285278 -1.846344
vt -1.2854 -1.612427
vt -1.114746 -1.846375
vt -1.114746 -1.626282
vt -1.285278 0
vt -1.114746 0
vt -1.2854 1.626038
vt -1.114746 1.626038
vt -1.285278 1.846344
vt -1.114746 1.846375
vt 0 -1.846344
vt 0 -1.626282
vt 0 1.626038
vt 0 1.846344
vt 1.104492 -1.846375
vt 1.104492 -1.626282
vt 1.104492 1.626038
vt 1.104492 1.846375
vt 1.285278 -1.846344
vt 1.2854 -1.626282
vt 1.104492 0
vt 1.285278 0
vt 1.2854 1.626038
vt 1.285278 1.846344

vn 0 1 0

usemtl ProBuilderDefault
f 3/3/1 4/4/1 2/2/1 1/1/1
f 4/4/1 6/6/1 5/5/1 2/2/1
f 6/6/1 8/8/1 7/7/1 5/5/1
f 8/8/1 10/10/1 9/9/1 7/7/1
f 11/11/1 12/12/1 4/4/1 3/3/1
f 13/13/1 14/14/1 10/10/1 8/8/1
f 15/15/1 16/16/1 12/12/1 11/11/1
f 17/17/1 18/18/1 14/14/1 13/13/1
f 19/19/1 20/20/1 16/16/1 15/15/1
f 20/20/1 22/22/1 21/21/1 16/16/1
f 22/22/1 23/23/1 17/17/1 21/21/1
f 23/23/1 24/24/1 18/18/1 17/17/1

