# ProBuilder 6.0.6
# https://unity3d.com/unity/features/worldbuilding/probuilder
# 11/13/2025 1:57:44 PM

mtllib ./particles_parada.mtl
o particles_parada

g Plane
v 1.369577 0 -1.846072
v 1.369829 0 -1.612189
v 1.199073 0 -1.846091
v 1.199088 0 -1.626068
v 1.369623 0 0.0002415716
v 1.199119 0 0.0002217857
v 1.369803 0 3.859486
v 1.199049 0 3.859495
v 1.369654 0 4.079767
v 1.199171 0 4.079804
v 0 0 -1.846344
v 0 0 -1.626282
v 1.2702E-05 0 3.859268
v 0.0001133412 0 4.07952
v -1.179283 0 -1.846107
v -1.179475 0 -1.625941
v -1.179286 0 3.859536
v -1.179414 0 4.079874
v -1.360174 0 -1.846017
v -1.360388 0 -1.625908
v -1.179445 0 0.0003486589
v -1.360129 0 0.0002957052
v -1.36022 0 3.859511
v -1.360098 0 4.079821

vt -1.369577 -1.846072
vt -1.369829 -1.612189
vt -1.199073 -1.846091
vt -1.199088 -1.626068
vt -1.369623 0.0002415716
vt -1.199119 0.0002217857
vt -1.369803 3.859486
vt -1.199049 3.859495
vt -1.369654 4.079767
vt -1.199171 4.079804
vt 0 -1.846344
vt 0 -1.626282
vt -1.2702E-05 3.859268
vt -0.0001133412 4.07952
vt 1.179283 -1.846107
vt 1.179475 -1.625941
vt 1.179286 3.859536
vt 1.179414 4.079874
vt 1.360174 -1.846017
vt 1.360388 -1.625908
vt 1.179445 0.0003486589
vt 1.360129 0.0002957052
vt 1.36022 3.859511
vt 1.360098 4.079821

vn 0 1 0

usemtl ProBuilderDefault
f 3/3/1 4/4/1 2/2/1 1/1/1
f 4/4/1 6/6/1 5/5/1 2/2/1
f 6/6/1 8/8/1 7/7/1 5/5/1
f 8/8/1 10/10/1 9/9/1 7/7/1
f 11/11/1 12/12/1 4/4/1 3/3/1
f 13/13/1 14/14/1 10/10/1 8/8/1
f 15/15/1 16/16/1 12/12/1 11/11/1
f 17/17/1 18/18/1 14/14/1 13/13/1
f 19/19/1 20/20/1 16/16/1 15/15/1
f 20/20/1 22/22/1 21/21/1 16/16/1
f 22/22/1 23/23/1 17/17/1 21/21/1
f 23/23/1 24/24/1 18/18/1 17/17/1

